<svg id="Component_27_2" data-name="Component 27 – 2" xmlns="http://www.w3.org/2000/svg" width="155.448" height="65.93" viewBox="0 0 155.448 65.93">
  <path id="Path_338" data-name="Path 338" d="M286.224,109.912h0c7.494.1,49.388.942,74.674,7.326,0,0-22.568-9.891-70.805-10.8Z" transform="translate(-205.45 -76.403)" fill="#fff"/>
  <path id="Path_339" data-name="Path 339" d="M84.852,106.265h0c-1.656-.035-3.329-.052-5.036-.052V106.2H77.6v.018C25.9,106.492,0,117.062,0,117.062c27.831-7.03,79.815-7.326,79.815-7.326h1.168Z" transform="translate(0 -76.226)" fill="#6bbfc6"/>
  <path id="Path_340" data-name="Path 340" d="M120.717,143.885h14.13v-5.717H118.615c-4.934,0-5.888,5.3-5.888,7.92a9.866,9.866,0,0,0,1.4,5.549,9.866,9.866,0,0,0-1.4,5.549c0,2.621.953,7.92,5.888,7.92h16.233v-5.717h-14.13a2.348,2.348,0,0,1-2.019-2.538c0-2.315,1.654-2.315,1.934-2.315h9.532v-5.772h-9.532c-.281,0-1.934,0-1.934-2.343a2.347,2.347,0,0,1,2.019-2.538" transform="translate(-80.914 -99.176)" fill="#fff"/>
  <path id="Path_341" data-name="Path 341" d="M284.2,143.745h.028v21.333h5.879V154.119h9.75s6.352,0,6.352-8.2c0-2.566-.975-7.752-5.879-7.752H284.2Zm5.906,0h8.134a2.317,2.317,0,0,1,2.006,2.482c0,2.287-1.644,2.287-1.922,2.287H290.11Z" transform="translate(-204 -99.176)" fill="#fff"/>
  <path id="Path_342" data-name="Path 342" d="M217.644,138.2h0l-6.993-.028-5.739,8.366-5.739-8.366H192.1l9.277,13.469L192.1,165.106h7.077l5.739-8.366,5.739,8.366,6.993-.028-9.221-13.441Z" transform="translate(-137.886 -99.176)" fill="#fff"/>
  <path id="Path_343" data-name="Path 343" d="M373.823,138.168h0c-7.076,0-12.815,6.023-12.815,13.441,0,7.446,5.739,13.469,12.815,13.469s12.788-6.023,12.788-13.469c0-7.418-5.711-13.441-12.788-13.441m0,22.448h0c-3.677,0-6.63-4.043-6.63-9.007s2.953-8.979,6.63-8.979c3.65,0,6.63,4.015,6.63,8.979s-2.981,9.007-6.63,9.007" transform="translate(-259.13 -99.176)" fill="#fff"/>
  <path id="Path_344" data-name="Path 344" d="M112.205,28.064h0V22.151h15.58s1.377-.087,1.377-2.111c0-1.814-1.063-2.163-1.5-2.163h-9.132s-6.221,0-6.221-8.2c0-2.564.941-7.763,5.751-7.763h15.789v5.6H120.1a2.284,2.284,0,0,0-1.952,2.477c0,2.285,1.6,2.285,1.882,2.285h7.354s7.685-.017,7.685,7.606c0,4.657-3.573,8.181-6.413,8.181H112.205Z" transform="translate(-80.54 -1.375)" fill="#fff"/>
  <path id="Path_345" data-name="Path 345" d="M201.211,0h0c-5,0-6.413,4.919-6.413,4.919l-6.884,21.77h6.6s5.3-17.06,5.855-18.874c.488-1.535.784-1.71,1.15-1.71.435,0,.662.157,1.132,1.71.558,1.814,6.03,18.874,6.03,18.874h6.221l-6.762-21.77S206.752,0,201.838,0h-.627Z" transform="translate(-134.883)" fill="#fff"/>
  <path id="Path_346" data-name="Path 346" d="M372.761,0h0c-4.984,0-6.413,4.919-6.413,4.919l-6.883,21.77h6.6s5.3-17.06,5.873-18.874c.47-1.535.819-1.71,1.133-1.71.279,0,.662.157,1.133,1.71.558,1.814,6.047,18.874,6.047,18.874h6.2L379.7,4.919S378.3,0,373.388,0h-.627Z" transform="translate(-258.022)" fill="#fff"/>
  <path id="Path_347" data-name="Path 347" d="M305.747,28.375h0V2.349H300V12.5h-9.132V2.349h-5.751V28.375h5.751V18.223H300V28.375Z" transform="translate(-204.653 -1.686)" fill="#fff"/>
</svg>
