<?xml version="1.0" encoding="utf-8"?>
<!-- Generator: Adobe Illustrator 27.4.0, SVG Export Plug-In . SVG Version: 6.00 Build 0)  -->
<svg version="1.1" id="Layer_1" xmlns="http://www.w3.org/2000/svg" xmlns:xlink="http://www.w3.org/1999/xlink" x="0px" y="0px"
	 viewBox="0 0 79.7 56.6" style="enable-background:new 0 0 79.7 56.6;" xml:space="preserve">
<style type="text/css">
	.st0{fill:#FFFFFF;}
</style>
<g id="istanbul-fuar-merkezi-logo-en" transform="translate(-0.135 0.016)">
	<path id="Path_417" class="st0" d="M76.5,32.4c-3.8-1.1-7.9-0.2-11,2.2c-0.8,0.6-1.5,1.3-2.2,2c-0.1-0.1-0.1-0.1-0.1-0.2
		s-0.1-0.2-0.1-0.2c-0.3-2-1.8-3.6-3.8-3.9c-3.8-0.9-7.9,0-10.9,2.6c-0.7,0.6-1.4,1.4-2.1,2.1l1.2-4.4H34.1c0.2-0.8,0.4-1.6,0.6-2.3
		c0.7-2.2,2-3.4,4.6-3.1c0.4,0,0.9,0.1,1.3,0.2c0.4,0.1,0.5,0.1,0.6-0.3c0.6-1.6,1.1-3.3,1.8-4.9c0.1-0.3,0.1-0.5-0.3-0.6
		C40.3,21,38,21,35.6,21.3c-3.7,0.4-6.9,2.8-8.4,6.2c-0.6,1.3-1.1,2.7-1.4,4.2c-0.1,0.7-0.4,0.8-1.1,0.8c-1.1-0.1-2.3,0-3.5,0
		c-0.3-0.1-0.6,0.1-0.6,0.4c0,0,0,0,0,0c-0.5,1.6-0.8,3.3-1.4,5c-0.2,0.5,0.1,0.5,0.5,0.5h3.5c0.6,0,0.6,0.2,0.5,0.6
		c-1.5,5.6-3.1,11.3-4.6,16.9c-0.1,0.5-0.1,0.6,0.5,0.6h7.3c0.5,0,0.6-0.1,0.7-0.6c1.5-5.7,3.1-11.3,4.5-17c0.1-0.5,0.3-0.6,0.8-0.6
		c1.5,0.1,2.9,0.1,4.4,0c0.6,0,0.7,0.1,0.5,0.7C36.5,44.7,35,50.4,33.5,56c-0.1,0.5-0.1,0.6,0.5,0.6c2.4-0.1,4.9,0,7.4,0
		c0.3,0.1,0.6-0.2,0.7-0.5c0,0,0,0,0,0c0.7-2.8,1.5-5.6,2.3-8.4c0.4-2.2,1.3-4.3,2.6-6.1c1.1-1.6,2.9-2.5,4.8-2.4
		c1.1,0,2.1,0.8,2.2,1.9c0.1,0.9,0,1.8-0.2,2.7c-1.1,4.1-2.1,8.2-3.3,12.3c-0.2,0.5-0.1,0.6,0.5,0.6H58c0.4,0.1,0.7-0.2,0.7-0.6
		c0,0,0,0,0,0c0.7-2.9,1.5-5.8,2.3-8.7c0.4-2,1.3-3.9,2.4-5.7c1.1-1.7,3-2.7,5-2.6c1,0,1.8,0.7,2,1.6c0.2,0.7,0.2,1.4,0,2.1
		c-0.5,2.3-1.2,4.6-1.8,6.9c-0.6,2.3-1.2,4.5-1.9,6.9h7.8c0.5,0,0.8-0.1,0.9-0.7c1-4,2.2-8,3.2-11.9c0.7-2.3,1.1-4.6,1.2-7
		C80,34.8,78.6,32.9,76.5,32.4z"/>
	<path id="Path_418" class="st0" d="M27.9,15.7C27.7,16,27.5,16,27.3,16c-4.9,2.2-9.4,5.3-13.3,9.1c-0.2,0.2-0.5,0.3-0.3,0.6
		c0.1,0.2,0.4,0.2,0.6,0.1c0.9,0,1.8-0.1,2.8-0.1c0.3,0,0.6-0.1,0.8-0.3c1.2-1,2.5-1.9,3.8-2.8c8.6-5.8,19.1-7.8,29.3-5.8
		c6.5,1.3,12.6,4.2,17.7,8.4c0.4,0.3,0.9,0.5,1.4,0.5c1.6-0.1,3.1,0,4.7-0.1c1.2,0,2.4,0,3.6-0.1c0.2,0,0.4,0.1,0.5-0.2
		c0.1-0.2-0.1-0.3-0.2-0.4c-0.3-0.3-0.6-0.6-0.9-0.8c-6.1-5.7-13.7-9.6-21.8-11.3c-0.8-0.2-1.6-0.3-2.5-0.5c0.3-0.1,0.4-0.2,0.6-0.2
		c4-1.8,7.6-4.1,10.9-6.9c0.2-0.1,0.4-0.2,0.3-0.5s-0.3-0.2-0.6-0.2c-0.8-0.1-1.6-0.1-2.4-0.2c-0.5-0.1-1.1,0.1-1.5,0.4
		c-10.4,7-21.6,9.2-33.8,5.8c-6.2-1.8-11.9-5-16.6-9.5c-0.3-0.3-0.7-0.5-1.1-0.6C6.4,0.4,3.6,0.2,0.7,0C0.5,0,0.3-0.1,0.2,0.1
		C0.1,0.3,0.2,0.5,0.4,0.6C6,6.9,13.1,11.5,21.1,14C23.3,14.8,25.5,15.3,27.9,15.7z M10.1,39.3c-0.3,0-0.4,0.2-0.5,0.5
		C8.2,45.2,6.8,50.6,5.3,56c-0.1,0.5-0.1,0.6,0.4,0.6h7.4c0.4,0,0.6-0.1,0.6-0.5c0.3-1.4,0.7-2.7,1.1-4.1c1.1-4.2,2.3-8.4,3.4-12.7
		C15.5,39.3,12.9,39.3,10.1,39.3L10.1,39.3z M19.6,32.5h-7.5c-0.3,0-0.5,0.1-0.6,0.5c-0.5,1.7-0.8,3.4-1.4,5
		c-0.1,0.5-0.1,0.5,0.4,0.5h7.5c0.3,0.1,0.6-0.2,0.7-0.5c0,0,0,0,0,0c0.4-1.6,0.8-3.3,1.4-5C20.1,32.5,20,32.5,19.6,32.5L19.6,32.5z
		"/>
</g>
</svg>
