<svg version="1.1" id="Layer_2" xmlns="http://www.w3.org/2000/svg" x="0" y="0" viewBox="0 0 273 108" xml:space="preserve"><style>.st0{fill:#252d5e}</style><path class="st0" d="M53.4 47.2V36.8H81s2.4-.2 2.4-3.7c0-3.2-1.9-3.8-2.6-3.8H64.6s-11 0-11-14.5C53.6 10.2 55.3 1 63.8 1h27.9v9.9H67.4s-3.5.3-3.5 4.4 2.9 4 3.3 4h13s13.6 0 13.6 13.4c0 8.2-6.3 14.5-11.4 14.5h-29zM114.8 0c-8.8 0-11.4 8.7-11.4 8.7L91.2 47.2h11.7s9.4-30.2 10.4-33.4c.9-2.7 1.4-3 2-3 .8 0 1.2.3 2 3 1 3.2 10.7 33.4 10.7 33.4h11L127 8.7S124.5 0 115.8 0h-1zM200.4 0C191.6 0 189 8.7 189 8.7l-12.2 38.5h11.7s9.4-30.2 10.4-33.4c.9-2.7 1.5-3 2-3s1.2.3 2 3c1 3.2 10.7 33.4 10.7 33.4h11l-12-38.5S210.1 0 201.4 0h-1zM176.3 47.2v-46h-10.2v17.9h-16.2V1.2h-10.1v46h10.1v-18h16.2v18zM54.6 68.6h6.1v5.2h-6.1zM177.3 87.6c0 1.8-1.8 2.1-1.8 2.1h-9.4v-4.3h9.3c.1-.1 1.9-.1 1.9 2.2m0-11.4c0 2.2-1.5 2.3-1.5 2.3h-9.6v-4.3h9.1s2 .1 2 2m5.8-.1c0-2 0-4-2.3-5.9-2.3-1.9-5.6-1.7-5.6-1.7h-15.1v27.1h16.1s2.6 0 4.7-1.6c2.2-1.8 2.3-4.1 2.3-6.1s-.3-3.9-2.5-5.5c2.3-1.6 2.4-4.3 2.4-6.3M61.6 95.8v-6.1h16.2s1.4 0 1.4-2.2c0-2-1.2-2.3-1.6-2.3h-9.4s-6.5 0-6.5-8.5c0-2.7 1.3-8.1 6.3-8.1h16.1v5.8H69.8s-2 .2-2 2.6 1.8 2.4 2.1 2.4h7.7s7.8.1 7.8 7.9c0 6.9-3.9 8.5-6.5 8.5H61.6zM116.2 67.8c-5.2 0-6.7 5.2-6.7 5.2l-7.2 22.8h6.9s5.5-17.9 6.1-19.8c.5-1.6.8-1.8 1.2-1.8.4 0 .7.2 1.2 1.8.6 1.9 6.3 19.8 6.3 19.8h6.5L123.4 73s-1.5-5.2-6.6-5.2h-.6zM54.6 74.6h6.1v21.2h-6.1zM224.4 89.7h-11.9V68.3h-6.1v27.5h18zM107.6 74.7v-6.1H86.1v6.1h7.7v21.1h6.1V74.7zM130.9 95.7V72.3s-.1-4.3 4.7-4.3c3.2 0 3.5-.1 5.3.5 1.8.6 3.2 1.8 4.5 5.9 1.3 4 4.2 14.5 4.2 14.5s.4 1.2 1.2 1.2c.8 0 .8-.7.8-.7V68.5h6.4V90s.3 5.9-5 5.9c-5.8 0-6.6.4-8.9-3.7-.5-.9-4.1-14-4.1-14l-.9-3.1s-.1-.8-.9-.8-1.1.1-1.1 1.2v20.1h-6.2v.1zM204.7 89.7V68.2H199v18.4c0 3.1-2.3 2.9-2.3 2.9h-4.2s-2.3.2-2.3-2.9V68.3h-5.7v21.5s0 5.9 6.9 5.9h6.4c6.8-.1 6.9-6 6.9-6"/><path class="st0" d="M138.5 52.9h-4C43 53.5.3 72.2.3 72.2c49.3-12.4 117.3-13 134.2-13h4c16.9 0 84.9.6 134.2 13 0 0-42.7-18.7-134.2-19.3zM223.3 102h1.1v-.8h-1.1v.8zm-.2 4.9h1.4v-4.4h-1.4v4.4zm-1.8-5.7c0 .3-.4.4-.6.4-.3 0-.6-.1-.7-.4h-.5c0 .6.5.9 1.1.9.6 0 1.1-.3 1.1-.9h-.4zm.5 5.7h.9v-2.4h-1.8v.9h.6c-.1.3-.4.5-.7.5-.8 0-1-.7-1-1.1 0-.3 0-1.3.9-1.3.3 0 .6.2.6.6h1.3c-.2-1-.9-1.7-2-1.7-1 0-2.2.7-2.2 2.4 0 1.3.8 2.3 2.1 2.3.5 0 1-.2 1.3-.6v.4zm-7.4 0h3.7v-1.1h-2.4v-.6h2.1v-1.1h-2.1v-.6h2.3v-1.1h-3.7v4.5zm-4.4 0h1.3v-2.4l1.4 2.4h1.3v-4.4h-1.3v2.4l-1.3-2.4H210v4.4zm-4.4 0h1.4v-1.5h.7c.5 0 .6.4.6.9 0 .2 0 .5.1.7h1.4c-.1-.2-.1-.7-.1-.9 0-.6-.3-1-.7-1.1.5-.2.7-.6.7-1.1 0-.8-.7-1.3-1.4-1.3h-2.6v4.3zm1.4-3.4h.6c.5 0 .7.2.7.4 0 .4-.3.4-.6.4h-.7v-.8zm-5.5 3.4h3.7v-1.1h-2.4v-.6h2.1v-1.1h-2.1v-.6h2.3v-1.1h-3.7v4.5zm-4.5 0h2c1.5 0 2.3-.9 2.3-2.2 0-1.1-.5-2.2-2-2.2H197v4.4zm1.3-3.3h.4c1 0 1.1.8 1.1 1.1 0 .4-.1 1.1-1 1.1h-.5v-2.2zm-4.4-1.6h1.1v-.8h-1.1v.8zm-.2 4.9h1.4v-4.4h-1.4v4.4zm-4.1-1.5c0 1.4 1.4 1.6 1.9 1.6 1 0 2-.4 2-1.5 0-.8-.6-1.1-1.2-1.3-.6-.2-1.3-.2-1.3-.6 0-.2.3-.3.5-.3.1 0 .3 0 .4.1.1.1.2.2.2.4h1.3c0-1.1-.9-1.4-1.8-1.4s-1.8.4-1.8 1.5c0 .9.8 1.1 1.5 1.3.8.2 1 .3 1 .5 0 .3-.3.4-.6.4s-.6-.1-.7-.3v-.3h-1.4zm-3.9 1.5h3.7v-1.1H187v-.6h2.1v-1.1H187v-.6h2.3v-1.1h-3.7v4.5zm-5.6 0h1.3V104l.8 2.8h1l.8-2.8v2.8h1.3v-4.4h-1.9l-.6 2.6-.6-2.6h-1.9v4.5zm-4.4 0h1.3v-2.4l1.4 2.4h1.3v-4.4h-1.3v2.4l-1.3-2.4h-1.4v4.4zm-4.1 0h3.7v-1.1h-2.4v-.6h2.1v-1.1h-2.1v-.6h2.3v-1.1h-3.7v4.5zm-3.7 0h3.3v-1.1h-2v-3.3h-1.4v4.4zm-4.1 0h3.7v-1.1h-2.4v-.6h2.1v-1.1h-2.1v-.6h2.3v-1.1h-3.7v4.5zm-5.6 0h1.3V104l.8 2.8h1l.8-2.8v2.8h1.3v-4.4h-1.9l-.6 2.6-.6-2.6h-1.9v4.5zm-2.3-4.8h1.1v-.8h-1.1v.8zm-1.4 0h1.1v-.8h-1.1v.8zm3.3.4h-1.4v2.4c0 .4 0 1-.6 1-.7 0-.7-.6-.7-1v-2.4h-1.4v2.7c0 1.2.7 1.8 2 1.8 1.4 0 2-.6 2-1.8v-2.7zm-8.6 4.4h1.4v-1.3l.4-.4 1.1 1.7h1.7l-1.9-2.7 1.6-1.7h-1.7l-1.2 1.5v-1.5h-1.4v4.4zm-4.3 0h1.4v-1.6l1.6-2.8h-1.5l-.8 1.6-.7-1.6h-1.5l1.6 2.8v1.6zm-3.3-1.6l.4-1.4.4 1.4h-.8zm-1.9 1.6h1.4l.2-.6h1.4l.2.6h1.4l-1.6-4.4h-1.3l-1.7 4.4zm-3.8 0h4v-1.1h-2.2l2.1-2.3v-1H136v1.1h1.9l-2.1 2.2v1.1zm-.2-4.4h-1.4v2.4c0 .4 0 1-.6 1-.7 0-.7-.6-.7-1v-2.4h-1.4v2.7c0 1.2.7 1.8 2 1.8s2-.6 2-1.8v-2.7zm-9.6 4.4h3.7v-1.1h-2.4v-.6h2.1v-1.1h-2.1v-.6h2.3v-1.1H126v4.5zm0-4.4h-1.4l-.7 2.7-.7-2.7h-1.4l1.3 4.4h1.5l1.4-4.4zm-9.7 4.4h1.4v-1.3l.4-.4 1.1 1.7h1.7l-1.9-2.7 1.6-1.7H119l-1.2 1.5v-1.5h-1.4v4.4zm-1.8 0h1.4v-4.4h-1.4v4.4zm-3.7 0h3.3v-1.1h-2v-3.3h-1.4v4.4zm-1.8 0h1.4v-4.4h-1.4v4.4zm-.3-2.8c-.1-1.1-.8-1.7-2-1.8-1.4 0-2.2.9-2.2 2.3 0 1.3.8 2.3 2.2 2.3 1.3 0 2-.9 2-1.8h-1.3c-.1.4-.3.7-.7.7-.6 0-.8-.6-.8-1.2s.2-1.2.8-1.2c.6 0 .7.5.7.7h1.3zm-6.9 1.2l.4-1.4.4 1.4h-.8zm-1.9 1.6h1.4l.2-.6h1.4l.2.6h1.4l-1.6-4.4h-1.3l-1.7 4.4zm.8-4.4h-1.4l-.7 2.7-.7-2.7h-1.4l1.3 4.4h1.5l1.4-4.4zm-6.4 2.8l.4-1.4.4 1.4h-.8zm-1.8 1.6H94l.2-.6h1.4l.2.6h1.4l-1.6-4.4h-1.3l-1.7 4.4zm-4.1 0h1.4v-1.7h1.3v1.7h1.4v-4.4h-1.4v1.5h-1.3v-1.5h-1.4v4.4zm-3.2 0h.6c0 .3-.2.6-.6.6v.5c.1 0 .3 0 .5-.1.6-.2.8-.7.8-1.3v-1h-1.3v1.3zm-2.8-1.6l.4-1.4.4 1.4h-.8zm-1.9 1.6H82l.2-.6h1.4l.2.6h1.4l-1.6-4.4h-1.3l-1.7 4.4zm-5.2 0h1.3V104l.8 2.8h1l.8-2.8v2.8h1.3v-4.4h-1.9l-.6 2.6-.6-2.6h-1.9v4.5zm-4.4 0h1.3v-2.4l1.4 2.4H75v-4.4h-1.3v2.4l-1.3-2.4H71v4.4zm-.4-4.4h-1.4v2.4c0 .4 0 1-.6 1-.7 0-.7-.6-.7-1v-2.4h-1.4v2.7c0 1.2.7 1.8 2 1.8 1.4 0 2-.6 2-1.8v-2.7zm-4.1 0h-1.4l-.7 2.7-.7-2.7h-1.4l1.3 4.4h1.5l1.4-4.4zm-6.3 2.8l.4-1.4.4 1.4h-.8zm-1.9 1.6h1.4l.2-.6h1.4l.2.6h1.4l-1.6-4.4H60l-1.7 4.4zm-3.7-1.5c0 1.4 1.4 1.6 1.9 1.6 1 0 2-.4 2-1.5 0-.8-.6-1.1-1.2-1.3-.6-.2-1.3-.2-1.3-.6 0-.2.3-.3.5-.3.1 0 .3 0 .4.1.1.1.2.2.2.4h1.3c0-1.1-.9-1.4-1.8-1.4s-1.8.4-1.8 1.5c0 .9.8 1.1 1.5 1.3.8.2 1 .3 1 .5 0 .3-.3.4-.6.4s-.6-.1-.7-.3v-.3h-1.4z"/></svg>